<svg xmlns="http://www.w3.org/2000/svg" width="900" height="260" viewBox="0 0 900 260">
  <style>
    .box { fill:#F7FAFC; stroke:#CBD5E1; stroke-width:2; }
    .title { font: 600 14px sans-serif; fill:#0F172A; }
    .text { font: 12px sans-serif; fill:#334155; }
    .arrow { stroke:#64748B; stroke-width:2; marker-end:url(#arrow); fill:none; }
  </style>
  <defs>
    <marker id="arrow" viewBox="0 0 10 10" refX="9" refY="5" markerWidth="8" markerHeight="8" orient="auto-start-reverse">
      <path d="M 0 0 L 10 5 L 0 10 z" fill="#64748B" />
    </marker>
  </defs>
  <!-- Boxes -->
  <rect class="box" x="20" y="60" width="150" height="90" rx="8"/>
  <rect class="box" x="200" y="60" width="180" height="90" rx="8"/>
  <rect class="box" x="410" y="60" width="170" height="90" rx="8"/>
  <rect class="box" x="610" y="60" width="170" height="90" rx="8"/>
  <rect class="box" x="20" y="180" width="300" height="60" rx="8"/>
  
  <!-- Titles -->
  <text class="title" x="40" y="85">Data</text>
  <text class="text" x="40" y="105">age, bmi, children, smoker, region...</text>

  <text class="title" x="220" y="85">Preprocessing</text>
  <text class="text" x="220" y="105">impute, encode categoricals, scale</text>

  <text class="title" x="430" y="85">Model</text>
  <text class="text" x="430" y="105">LinearReg, RF, or GBR</text>

  <text class="title" x="630" y="85">Evaluation</text>
  <text class="text" x="630" y="105">MAE, RMSE, R², plots</text>

  <text class="title" x="40" y="205">Artifacts & Reporting</text>
  <text class="text" x="40" y="225">metrics.json, figures/, model.joblib</text>

  <!-- Arrows -->
  <path class="arrow" d="M 170 105 L 200 105"/>
  <path class="arrow" d="M 380 105 L 410 105"/>
  <path class="arrow" d="M 580 105 L 610 105"/>
  <path class="arrow" d="M 695 150 L 170 210"/>
</svg>

